<svg width="139" height="139" viewBox="0 0 139 139" fill="none" xmlns="http://www.w3.org/2000/svg">
<g clip-path="url(#clip0_392_4622)">
<path d="M72.9347 134.703L72.871 134.714L72.4598 134.917L72.344 134.94L72.2629 134.917L71.8517 134.714C71.7899 134.695 71.7436 134.705 71.7127 134.743L71.6895 134.801L71.5911 137.28L71.62 137.396L71.6779 137.471L72.2803 137.9L72.3671 137.923L72.4366 137.9L73.039 137.471L73.1085 137.378L73.1316 137.28L73.0332 134.807C73.0177 134.745 72.9849 134.71 72.9347 134.703ZM74.4695 134.048L74.3942 134.06L73.3228 134.598L73.2648 134.656L73.2475 134.72L73.3517 137.21L73.3807 137.28L73.427 137.32L74.5911 137.859C74.6645 137.878 74.7205 137.863 74.7591 137.813L74.7823 137.732L74.5853 134.176C74.566 134.106 74.5274 134.064 74.4695 134.048ZM70.3285 134.06C70.3029 134.044 70.2724 134.039 70.2433 134.046C70.2142 134.052 70.1887 134.07 70.1721 134.094L70.1373 134.176L69.9404 137.732C69.9443 137.801 69.9771 137.847 70.0389 137.871L70.1258 137.859L71.2899 137.32L71.3478 137.274L71.371 137.21L71.4694 134.72L71.4521 134.65L71.3941 134.593L70.3285 134.06Z" fill="#9E2A2B"/>
<path d="M77.0235 18.2322L127.029 104.841C127.791 106.161 128.193 107.66 128.193 109.184C128.193 110.709 127.791 112.208 127.029 113.528C126.266 114.849 125.17 115.946 123.849 116.708C122.528 117.471 121.03 117.872 119.505 117.872H19.4949C17.9699 117.872 16.4719 117.471 15.1512 116.708C13.8306 115.946 12.7339 114.849 11.9715 113.528C11.209 112.208 10.8076 110.709 10.8076 109.184C10.8076 107.66 11.209 106.161 11.9715 104.841L61.9768 18.2322C65.3186 12.4405 73.6759 12.4405 77.0235 18.2322ZM69.5001 86.875C67.9641 86.875 66.491 87.4852 65.4048 88.5714C64.3187 89.6575 63.7085 91.1306 63.7085 92.6667C63.7085 94.2027 64.3187 95.6759 65.4048 96.762C66.491 97.8482 67.9641 98.4584 69.5001 98.4584C71.0362 98.4584 72.5093 97.8482 73.5955 96.762C74.6816 95.6759 75.2918 94.2027 75.2918 92.6667C75.2918 91.1306 74.6816 89.6575 73.5955 88.5714C72.5093 87.4852 71.0362 86.875 69.5001 86.875ZM69.5001 46.3333C68.0816 46.3335 66.7124 46.8543 65.6523 47.797C64.5922 48.7396 63.915 50.0386 63.749 51.4474L63.7085 52.125V75.2917C63.7101 76.7679 64.2754 78.1877 65.2887 79.2611C66.3021 80.3345 67.6871 80.9805 69.1607 81.067C70.6344 81.1535 72.0854 80.674 73.2174 79.7266C74.3494 78.7791 75.0769 77.4352 75.2513 75.9693L75.2918 75.2917V52.125C75.2918 50.589 74.6816 49.1158 73.5955 48.0297C72.5093 46.9435 71.0362 46.3333 69.5001 46.3333Z" fill="#9E2A2B"/>
<mask id="path-3-inside-1_392_4622" fill="white">
<path d="M66.673 130.946L66.6093 130.957L66.1981 131.16L66.0823 131.183L66.0012 131.16L65.59 130.957C65.5282 130.938 65.4818 130.948 65.451 130.986L65.4278 131.044L65.3293 133.523L65.3583 133.639L65.4162 133.714L66.0185 134.143L66.1054 134.166L66.1749 134.143L66.7773 133.714L66.8468 133.622L66.8699 133.523L66.7715 131.05C66.756 130.988 66.7232 130.953 66.673 130.946ZM68.2078 130.291L68.1325 130.303L67.061 130.842L67.0031 130.899L66.9858 130.963L67.09 133.454L67.119 133.523L67.1653 133.564L68.3294 134.102C68.4028 134.122 68.4588 134.106 68.4974 134.056L68.5205 133.975L68.3236 130.419C68.3043 130.349 68.2657 130.307 68.2078 130.291ZM64.0667 130.303C64.0412 130.287 64.0107 130.282 63.9816 130.289C63.9525 130.295 63.9269 130.313 63.9104 130.338L63.8756 130.419L63.6787 133.975C63.6826 134.044 63.7154 134.091 63.7772 134.114L63.864 134.102L65.0282 133.564L65.0861 133.517L65.1093 133.454L65.2077 130.963L65.1903 130.894L65.1324 130.836L64.0667 130.303Z"/>
</mask>
<path d="M66.673 130.946L66.9771 128.969L66.6454 128.918L66.3151 128.978L66.673 130.946ZM66.6093 130.957L66.2514 128.99L65.976 129.04L65.725 129.163L66.6093 130.957ZM66.1981 131.16L66.5903 133.121L66.8473 133.07L67.0824 132.954L66.1981 131.16ZM66.0823 131.183L65.5328 133.106L65.999 133.239L66.4745 133.144L66.0823 131.183ZM66.0012 131.16L65.1169 132.954L65.2785 133.034L65.4518 133.083L66.0012 131.16ZM65.59 130.957L66.4743 129.163L66.3349 129.095L66.1865 129.048L65.59 130.957ZM65.451 130.986L63.8892 129.737L63.7041 129.968L63.594 130.244L65.451 130.986ZM65.4278 131.044L63.5708 130.302L63.443 130.621L63.4294 130.965L65.4278 131.044ZM65.3293 133.523L63.3309 133.444L63.3195 133.73L63.3891 134.008L65.3293 133.523ZM65.3583 133.639L63.418 134.124L63.519 134.528L63.773 134.858L65.3583 133.639ZM65.4162 133.714L63.831 134.934L64.0132 135.171L64.2567 135.344L65.4162 133.714ZM66.0185 134.143L64.859 135.772L65.1538 135.982L65.5033 136.075L66.0185 134.143ZM66.1054 134.166L65.5901 136.098L66.1692 136.253L66.7378 136.063L66.1054 134.166ZM66.1749 134.143L66.8073 136.04L67.0909 135.946L67.3344 135.772L66.1749 134.143ZM66.7773 133.714L67.9368 135.344L68.1905 135.163L68.3773 134.914L66.7773 133.714ZM66.8468 133.622L68.4468 134.821L68.6978 134.487L68.7936 134.08L66.8468 133.622ZM66.8699 133.523L68.8168 133.981L68.8792 133.716L68.8683 133.444L66.8699 133.523ZM66.7715 131.05L68.7699 130.97L68.7617 130.765L68.7117 130.565L66.7715 131.05ZM68.2078 130.291L68.7231 128.359L68.3181 128.251L67.9038 128.315L68.2078 130.291ZM68.1325 130.303L67.8285 128.326L67.5164 128.374L67.2342 128.516L68.1325 130.303ZM67.061 130.842L66.1628 129.055L65.8748 129.199L65.6468 129.427L67.061 130.842ZM67.0031 130.899L65.5889 129.485L65.2133 129.861L65.0736 130.373L67.0031 130.899ZM66.9858 130.963L65.0562 130.437L64.9745 130.737L64.9875 131.047L66.9858 130.963ZM67.09 133.454L65.0918 133.537L65.1067 133.894L65.2439 134.223L67.09 133.454ZM67.119 133.523L65.2728 134.292L65.4518 134.722L65.802 135.028L67.119 133.523ZM67.1653 133.564L65.8483 135.069L66.0646 135.258L66.3255 135.379L67.1653 133.564ZM68.3294 134.102L67.4896 135.917L67.6498 135.991L67.8204 136.036L68.3294 134.102ZM68.4974 134.056L70.0826 135.275L70.3155 134.973L70.4204 134.605L68.4974 134.056ZM68.5205 133.975L70.4436 134.524L70.5361 134.2L70.5175 133.864L68.5205 133.975ZM68.3236 130.419L70.3206 130.308L70.3086 130.092L70.2507 129.883L68.3236 130.419ZM64.0667 130.303L63.0302 132.013L63.0997 132.055L63.1723 132.092L64.0667 130.303ZM63.9104 130.338L62.247 129.227L62.1447 129.38L62.0721 129.55L63.9104 130.338ZM63.8756 130.419L62.0374 129.631L61.8982 129.955L61.8787 130.308L63.8756 130.419ZM63.6787 133.975L61.6818 133.864L61.6756 133.975L61.6818 134.086L63.6787 133.975ZM63.7772 134.114L63.0749 135.986L63.5445 136.163L64.0416 136.096L63.7772 134.114ZM63.864 134.102L64.1285 136.085L64.4289 136.045L64.7039 135.917L63.864 134.102ZM65.0282 133.564L65.868 135.379L66.0881 135.277L66.2775 135.125L65.0282 133.564ZM65.0861 133.517L66.3354 135.079L66.7738 134.728L66.9657 134.201L65.0861 133.517ZM65.1093 133.454L66.9888 134.137L67.0954 133.844L67.1077 133.533L65.1093 133.454ZM65.2077 130.963L67.2061 131.042L67.2175 130.756L67.148 130.478L65.2077 130.963ZM65.1903 130.894L67.1306 130.409L66.9962 129.871L66.6045 129.479L65.1903 130.894ZM65.1324 130.836L66.5466 129.422L66.3171 129.192L66.0269 129.047L65.1324 130.836ZM66.3151 128.978L66.2514 128.99L66.9672 132.925L67.0309 132.913L66.3151 128.978ZM65.725 129.163L65.3138 129.366L67.0824 132.954L67.4936 132.751L65.725 129.163ZM65.8059 129.199L65.69 129.222L66.4745 133.144L66.5903 133.121L65.8059 129.199ZM66.6317 129.26L66.5506 129.237L65.4518 133.083L65.5328 133.106L66.6317 129.26ZM66.8855 129.366L66.4743 129.163L64.7057 132.751L65.1169 132.954L66.8855 129.366ZM66.1865 129.048C65.9447 128.973 65.558 128.897 65.1011 128.992C64.601 129.096 64.1811 129.372 63.8892 129.737L67.0127 132.236C66.7517 132.562 66.3704 132.814 65.9167 132.908C65.5061 132.994 65.1735 132.923 64.9934 132.866L66.1865 129.048ZM63.594 130.244L63.5708 130.302L67.2848 131.787L67.3079 131.729L63.594 130.244ZM63.4294 130.965L63.3309 133.444L67.3278 133.602L67.4262 131.124L63.4294 130.965ZM63.3891 134.008L63.418 134.124L67.2986 133.154L67.2696 133.038L63.3891 134.008ZM63.773 134.858L63.831 134.934L67.0015 132.495L66.9436 132.419L63.773 134.858ZM64.2567 135.344L64.859 135.772L67.1781 132.513L66.5757 132.085L64.2567 135.344ZM65.5033 136.075L65.5901 136.098L66.6207 132.233L66.5338 132.21L65.5033 136.075ZM66.7378 136.063L66.8073 136.04L65.5425 132.245L65.473 132.269L66.7378 136.063ZM67.3344 135.772L67.9368 135.344L65.6177 132.085L65.0154 132.513L67.3344 135.772ZM68.3773 134.914L68.4468 134.821L65.2467 132.422L65.1772 132.514L68.3773 134.914ZM68.7936 134.08L68.8168 133.981L64.9231 133.065L64.8999 133.163L68.7936 134.08ZM68.8683 133.444L68.7699 130.97L64.773 131.13L64.8715 133.603L68.8683 133.444ZM68.7117 130.565C68.6475 130.308 68.5068 129.941 68.1893 129.604C67.8476 129.243 67.4126 129.036 66.9771 128.969L66.3689 132.923C65.9836 132.863 65.5901 132.678 65.2812 132.351C64.9965 132.049 64.88 131.73 64.8312 131.535L68.7117 130.565ZM67.9038 128.315L67.8285 128.326L68.4365 132.28L68.5118 132.268L67.9038 128.315ZM67.2342 128.516L66.1628 129.055L67.9593 132.628L69.0308 132.09L67.2342 128.516ZM65.6468 129.427L65.5889 129.485L68.4173 132.314L68.4753 132.256L65.6468 129.427ZM65.0736 130.373L65.0562 130.437L68.9153 131.489L68.9327 131.426L65.0736 130.373ZM64.9875 131.047L65.0918 133.537L69.0883 133.37L68.984 130.88L64.9875 131.047ZM65.2439 134.223L65.2728 134.292L68.9651 132.754L68.9361 132.684L65.2439 134.223ZM65.802 135.028L65.8483 135.069L68.4823 132.058L68.4359 132.018L65.802 135.028ZM66.3255 135.379L67.4896 135.917L69.1693 132.287L68.0051 131.748L66.3255 135.379ZM67.8204 136.036C68.0967 136.109 68.501 136.159 68.9582 136.033C69.4434 135.899 69.8238 135.612 70.0826 135.275L66.9121 132.836C67.1324 132.55 67.4655 132.296 67.8946 132.177C68.2958 132.066 68.6355 132.115 68.8384 132.168L67.8204 136.036ZM70.4204 134.605L70.4436 134.524L66.5975 133.425L66.5743 133.506L70.4204 134.605ZM70.5175 133.864L70.3206 130.308L66.3267 130.529L66.5236 134.085L70.5175 133.864ZM70.2507 129.883C70.087 129.294 69.6152 128.597 68.7231 128.359L67.6925 132.224C67.3675 132.137 67.0513 131.956 66.8004 131.68C66.5623 131.418 66.4497 131.145 66.3966 130.954L70.2507 129.883ZM65.1033 128.592C64.6369 128.31 64.0796 128.218 63.5477 128.337L64.4155 132.241C63.9418 132.347 63.4456 132.265 63.0302 132.013L65.1033 128.592ZM63.5477 128.337C63.0157 128.455 62.5497 128.774 62.247 129.227L65.5738 131.448C65.3042 131.852 64.8892 132.136 64.4155 132.241L63.5477 128.337ZM62.0721 129.55L62.0374 129.631L65.7139 131.207L65.7486 131.126L62.0721 129.55ZM61.8787 130.308L61.6818 133.864L65.6757 134.085L65.8726 130.529L61.8787 130.308ZM61.6818 134.086C61.6999 134.411 61.7958 134.825 62.0742 135.218C62.3576 135.618 62.7317 135.858 63.0749 135.986L64.4794 132.241C64.7608 132.347 65.0877 132.552 65.3383 132.906C65.5839 133.252 65.6614 133.608 65.6756 133.864L61.6818 134.086ZM64.0416 136.096L64.1285 136.085L63.5996 132.12L63.5127 132.131L64.0416 136.096ZM64.7039 135.917L65.868 135.379L64.1883 131.748L63.0242 132.287L64.7039 135.917ZM66.2775 135.125L66.3354 135.079L63.8368 131.955L63.7789 132.002L66.2775 135.125ZM66.9657 134.201L66.9888 134.137L63.2297 132.77L63.2065 132.834L66.9657 134.201ZM67.1077 133.533L67.2061 131.042L63.2093 130.884L63.1108 133.375L67.1077 133.533ZM67.148 130.478L67.1306 130.409L63.2501 131.379L63.2674 131.448L67.148 130.478ZM66.6045 129.479L66.5466 129.422L63.7182 132.25L63.7761 132.308L66.6045 129.479ZM66.0269 129.047L64.9612 128.514L63.1723 132.092L64.238 132.625L66.0269 129.047Z" fill="black" mask="url(#path-3-inside-1_392_4622)"/>
<path d="M56.5811 14.9754L56.5812 14.9751C59.5377 9.85113 66.9327 9.84962 69.8958 14.9754C69.8959 14.9755 69.8959 14.9756 69.896 14.9758L119.901 101.584C120.576 102.753 120.931 104.078 120.931 105.428C120.931 106.777 120.576 108.103 119.901 109.271C119.226 110.44 118.256 111.41 117.087 112.085C115.919 112.76 114.593 113.115 113.244 113.115H13.2332C11.8838 113.115 10.5581 112.76 9.38952 112.085L8.8895 112.951L9.38952 112.085C8.2209 111.41 7.25048 110.44 6.57578 109.271L5.70975 109.771L6.57578 109.271C5.90108 108.103 5.54589 106.777 5.5459 105.428C5.54591 104.078 5.90112 102.753 6.57583 101.584L56.5811 14.9754ZM63.2384 41.5765H63.2383C61.5748 41.5767 59.9692 42.1875 58.7261 43.2929C57.483 44.3983 56.6888 45.9215 56.4942 47.5736L56.4908 47.6021L56.4891 47.6308L56.4485 48.3085L56.4468 48.3383V48.3682V71.5348V71.536C56.4487 73.267 57.1115 74.932 58.2999 76.1908C59.4882 77.4495 61.1123 78.207 62.8404 78.3084C64.5685 78.4099 66.2701 77.8476 67.5975 76.7366C68.925 75.6255 69.7781 74.0495 69.9826 72.3306L69.986 72.3015L69.9878 72.2722L70.0283 71.5946L70.0301 71.5647V71.5348V48.3682C70.0301 46.5669 69.3145 44.8394 68.0409 43.5657C66.7672 42.2921 65.0397 41.5765 63.2384 41.5765ZM63.2384 82.1182C61.4372 82.1182 59.7097 82.8337 58.436 84.1074C57.1623 85.3811 56.4468 87.1086 56.4468 88.9099C56.4468 90.7111 57.1623 92.4386 58.436 93.7123C59.7097 94.986 61.4372 95.7015 63.2384 95.7015C65.0397 95.7015 66.7672 94.986 68.0409 93.7123C69.3145 92.4386 70.0301 90.7111 70.0301 88.9099C70.0301 87.1086 69.3145 85.3811 68.0409 84.1074C66.7672 82.8337 65.0397 82.1182 63.2384 82.1182Z" stroke="black" stroke-width="2"/>
</g>
<defs>
<clipPath id="clip0_392_4622">
<rect width="139" height="139" fill="white"/>
</clipPath>
</defs>
</svg>
