<svg width="70" height="70" viewBox="0 0 70 70" fill="none" xmlns="http://www.w3.org/2000/svg">
<g clip-path="url(#clip0_741_3667)">
<path d="M17.5 17.5H52.5V52.5H17.5V17.5ZM21.875 48.125H40.6396L28.4375 35.8887L21.875 42.4854V48.125ZM21.875 21.875V36.2646L28.4375 29.7363L46.8604 48.125H48.125V21.875H21.875ZM41.5625 30.625C40.9701 30.625 40.4574 30.4085 40.0244 29.9756C39.5915 29.5426 39.375 29.0299 39.375 28.4375C39.375 27.8451 39.5915 27.3324 40.0244 26.8994C40.4574 26.4665 40.9701 26.25 41.5625 26.25C42.1549 26.25 42.6676 26.4665 43.1006 26.8994C43.5335 27.3324 43.75 27.8451 43.75 28.4375C43.75 29.0299 43.5335 29.5426 43.1006 29.9756C42.6676 30.4085 42.1549 30.625 41.5625 30.625ZM29.3604 11.8604L26.25 8.75L35 0L43.75 8.75L40.6396 11.8604L35 6.18652L29.3604 11.8604ZM40.6396 58.1396L43.75 61.25L35 70L26.25 61.25L29.3604 58.1396L35 63.8135L40.6396 58.1396ZM11.8604 29.3604L6.18652 35L11.8604 40.6396L8.75 43.75L0 35L8.75 26.25L11.8604 29.3604ZM70 35L61.25 43.75L58.1396 40.6396L63.8135 35L58.1396 29.3604L61.25 26.25L70 35Z" fill="#393836"/>
</g>
<defs>
<clipPath id="clip0_741_3667">
<rect width="70" height="70" fill="white"/>
</clipPath>
</defs>
</svg>
