<svg width="60" height="60" viewBox="0 0 60 60" fill="none" xmlns="http://www.w3.org/2000/svg">
<path d="M9.375 9.375C8.71196 9.375 8.07607 9.63839 7.60723 10.1072C7.13839 10.5761 6.875 11.212 6.875 11.875C6.875 12.538 7.13839 13.1739 7.60723 13.6428C8.07607 14.1116 8.71196 14.375 9.375 14.375H50.625C51.288 14.375 51.9239 14.1116 52.3928 13.6428C52.8616 13.1739 53.125 12.538 53.125 11.875C53.125 11.212 52.8616 10.5761 52.3928 10.1072C51.9239 9.63839 51.288 9.375 50.625 9.375H9.375ZM33.125 18.125C32.462 18.125 31.8261 18.3884 31.3572 18.8572C30.8884 19.3261 30.625 19.962 30.625 20.625C30.625 21.288 30.8884 21.9239 31.3572 22.3928C31.8261 22.8616 32.462 23.125 33.125 23.125H50.625C51.288 23.125 51.9239 22.8616 52.3928 22.3928C52.8616 21.9239 53.125 21.288 53.125 20.625C53.125 19.962 52.8616 19.3261 52.3928 18.8572C51.9239 18.3884 51.288 18.125 50.625 18.125H33.125ZM30.625 38.125C30.625 37.462 30.8884 36.8261 31.3572 36.3572C31.8261 35.8884 32.462 35.625 33.125 35.625H50.625C51.288 35.625 51.9239 35.8884 52.3928 36.3572C52.8616 36.8261 53.125 37.462 53.125 38.125C53.125 38.788 52.8616 39.4239 52.3928 39.8928C51.9239 40.3616 51.288 40.625 50.625 40.625H33.125C32.462 40.625 31.8261 40.3616 31.3572 39.8928C30.8884 39.4239 30.625 38.788 30.625 38.125ZM33.125 26.875C32.462 26.875 31.8261 27.1384 31.3572 27.6072C30.8884 28.0761 30.625 28.712 30.625 29.375C30.625 30.038 30.8884 30.6739 31.3572 31.1428C31.8261 31.6116 32.462 31.875 33.125 31.875H50.625C51.288 31.875 51.9239 31.6116 52.3928 31.1428C52.8616 30.6739 53.125 30.038 53.125 29.375C53.125 28.712 52.8616 28.0761 52.3928 27.6072C51.9239 27.1384 51.288 26.875 50.625 26.875H33.125ZM6.875 46.875C6.875 46.212 7.13839 45.5761 7.60723 45.1072C8.07607 44.6384 8.71196 44.375 9.375 44.375H50.625C51.288 44.375 51.9239 44.6384 52.3928 45.1072C52.8616 45.5761 53.125 46.212 53.125 46.875C53.125 47.538 52.8616 48.1739 52.3928 48.6428C51.9239 49.1116 51.288 49.375 50.625 49.375H9.375C8.71196 49.375 8.07607 49.1116 7.60723 48.6428C7.13839 48.1739 6.875 47.538 6.875 46.875ZM11.875 27.5C11.875 26.0082 12.4676 24.5774 13.5225 23.5225C14.5774 22.4676 16.0082 21.875 17.5 21.875C18.9918 21.875 20.4226 22.4676 21.4775 23.5225C22.5324 24.5774 23.125 26.0082 23.125 27.5V39.375C23.125 40.038 23.3884 40.6739 23.8572 41.1428C24.3261 41.6116 24.962 41.875 25.625 41.875C26.288 41.875 26.9239 41.6116 27.3928 41.1428C27.8616 40.6739 28.125 40.038 28.125 39.375V27.5C28.125 24.6821 27.0056 21.9796 25.013 19.987C23.0204 17.9944 20.3179 16.875 17.5 16.875C14.6821 16.875 11.9796 17.9944 9.98699 19.987C7.99442 21.9796 6.875 24.6821 6.875 27.5V39.375C6.875 40.038 7.13839 40.6739 7.60723 41.1428C8.07607 41.6116 8.71196 41.875 9.375 41.875C10.038 41.875 10.6739 41.6116 11.1428 41.1428C11.6116 40.6739 11.875 40.038 11.875 39.375V27.5Z" fill="#393836"/>
</svg>
