<svg width="71" height="71" viewBox="0 0 71 71" fill="none" xmlns="http://www.w3.org/2000/svg">
<path d="M20.7083 59.1667H32.5417C32.5417 62.4208 29.8792 65.0833 26.625 65.0833C23.3708 65.0833 20.7083 62.4208 20.7083 59.1667ZM14.7917 56.2083H38.4583V50.2917H14.7917V56.2083ZM48.8125 28.1042C48.8125 39.405 40.9433 45.44 37.6596 47.3333H15.5904C12.3067 45.44 4.4375 39.405 4.4375 28.1042C4.4375 15.8567 14.3775 5.91667 26.625 5.91667C38.8725 5.91667 48.8125 15.8567 48.8125 28.1042ZM42.8958 28.1042C42.8958 19.1404 35.5887 11.8333 26.625 11.8333C17.6613 11.8333 10.3542 19.1404 10.3542 28.1042C10.3542 35.4113 14.7621 39.6121 17.3062 41.4167H35.9437C38.4879 39.6121 42.8958 35.4113 42.8958 28.1042ZM63.2196 21.8029L59.1667 23.6667L63.2196 25.5304L65.0833 29.5833L66.9471 25.5304L71 23.6667L66.9471 21.8029L65.0833 17.75L63.2196 21.8029ZM56.2083 17.75L58.9892 11.6558L65.0833 8.875L58.9892 6.09417L56.2083 0L53.4275 6.09417L47.3333 8.875L53.4275 11.6558L56.2083 17.75Z" fill="#393836"/>
</svg>
