<svg width="144" height="156" viewBox="0 0 144 156" fill="none" xmlns="http://www.w3.org/2000/svg">
<rect x="33.7305" y="59.7266" width="24" height="12" rx="6" fill="black"/>
<path d="M71.948 49.6504C75.8643 47.8032 89.2309 45.3025 97.4892 52.1511L107.479 30.1277L107.819 29.332C110.345 23.7338 109.635 17.4252 106.343 12.5658C105.152 10.7187 103.562 9.12734 101.633 7.79173C96.2405 4.21115 89.5147 1 82.6753 1H61.2207C54.3814 1 47.6555 4.21115 42.2635 7.79173C40.3337 9.12734 38.7445 10.7187 37.5526 12.5658C34.2606 17.4252 33.5511 23.7338 36.0768 29.332L36.4174 30.1277L46.4068 52.1511C54.6651 45.3025 68.0317 47.8032 71.948 49.6504Z" stroke="#4C4C4E" stroke-width="2" stroke-linecap="round" stroke-linejoin="round"/>
<path d="M63.4358 1L56.1424 5.46151C53.4463 7.16655 52.4814 10.6903 53.9288 13.5604L57.3343 20.3806C63.3506 32.4295 71.7792 49.2809 71.9495 49.6504C72.1198 49.2809 80.5484 32.4295 86.5647 20.3806C87.8418 17.823 89.0053 15.4928 89.9702 13.5604C91.4176 10.6903 90.4527 7.16655 87.7567 5.46151L80.4632 1" stroke="#4C4C4E" stroke-width="2" stroke-linecap="round" stroke-linejoin="round"/>
<path d="M37.5527 12.5659C33.2958 14.3562 12.125 24.0465 12.125 36.3796C12.125 36.3796 14.7075 40.6706 17.7441 46.4393C21.632 53.8278 26.2578 63.6602 27.0808 69.8551C28.1876 78.1814 22.4266 110.208 28.0173 128.025C29.8903 134.021 32.7566 138.909 37.8932 140.245V154.453H106.003V140.245C111.14 138.909 114.006 134.021 115.879 128.025C121.47 110.208 115.709 78.1814 116.815 69.8551C117.638 63.6602 122.264 53.8278 126.152 46.4393C129.189 40.6706 131.771 36.3796 131.771 36.3796C131.771 24.0465 110.6 14.3562 106.344 12.5659" stroke="#4C4C4E" stroke-width="2" stroke-linecap="round" stroke-linejoin="round"/>
<path d="M106.004 140.245H71.9494H37.8945" stroke="#4C4C4E" stroke-width="2" stroke-linecap="round" stroke-linejoin="round"/>
<path d="M131.771 36.3794C131.771 36.3794 142.896 61.5003 142.896 134.561C142.896 139.477 140.058 140.244 140.058 140.244C140.058 140.244 123.399 140.216 123.03 140.244C119.88 140.358 115.879 137.374 115.879 128.025" stroke="#4C4C4E" stroke-width="2" stroke-linecap="round" stroke-linejoin="round"/>
<path d="M12.1246 36.3794C12.1246 36.3794 1 61.5003 1 134.561C1 139.477 3.83791 140.244 3.83791 140.244C3.83791 140.244 20.4964 140.216 20.8654 140.244C24.0154 140.358 28.0169 137.374 28.0169 128.025" stroke="#4C4C4E" stroke-width="2" stroke-linecap="round" stroke-linejoin="round"/>
<path d="M123.031 140.245V140.273V154.453H140.059V140.245" stroke="#4C4C4E" stroke-width="2" stroke-linecap="round" stroke-linejoin="round"/>
<path d="M20.8653 140.245V140.273V154.453H3.83789V140.245" stroke="#4C4C4E" stroke-width="2" stroke-linecap="round" stroke-linejoin="round"/>
<path d="M109.324 30.9517C110.289 31.9178 113.524 35.129 124.28 45.9276" stroke="#4C4C4E" stroke-width="2" stroke-linecap="round" stroke-linejoin="round"/>
<path d="M34.573 30.9517C33.6081 31.9178 30.3729 35.129 19.6172 45.9276" stroke="#4C4C4E" stroke-width="2" stroke-linecap="round" stroke-linejoin="round"/>
<path d="M86.1387 94.7769L86.6211 97.1071C88.8063 108.303 95.9578 117.937 106.004 123.194" stroke="#4C4C4E" stroke-width="2" stroke-linecap="round" stroke-linejoin="round"/>
<path d="M57.7599 94.7769L57.2775 97.1071C55.0923 108.303 47.9407 117.937 37.8945 123.194" stroke="#4C4C4E" stroke-width="2" stroke-linecap="round" stroke-linejoin="round"/>
<path d="M71.9492 49.6504V140.245V154.453" stroke="#4C4C4E" stroke-width="2" stroke-linecap="round" stroke-linejoin="round"/>
</svg>
