<svg width="172" height="36" viewBox="0 0 172 36" fill="none" xmlns="http://www.w3.org/2000/svg">
<rect x="86" y="1" width="55" height="12" rx="6" stroke="#4C4C4E" stroke-width="2"/>
<rect x="23" y="16" width="126" height="11" rx="5.5" fill="black"/>
<path d="M86 9H25C21 9.16667 13 11.8 13 21C13 32.5 22.5 35 25 35C27 35 106.5 35 146 35C149.667 35 157 32.4 157 22C157 9 147 9 146 9C145.2 9 142 9 140.5 9" stroke="#4C4C4E" stroke-width="2"/>
<path d="M155 14H163.5C166 14 171 15.5 171 21.5C171 27.5 166 29.6667 163.5 30H155" stroke="#4C4C4E" stroke-width="2"/>
<path d="M12 18L1 22H12V18Z" stroke="#4C4C4E" stroke-width="2"/>
<path d="M12 26L1 22H12V26Z" stroke="#4C4C4E" stroke-width="2"/>
</svg>
