<svg width="113" height="93" viewBox="0 0 113 93" fill="none" xmlns="http://www.w3.org/2000/svg">
<path d="M108.922 10.9888C110.945 12.9013 112.125 15.539 112.204 18.3218C112.283 21.1047 111.253 23.8049 109.342 25.8288L49.8417 88.8288C48.8774 89.848 47.7186 90.6636 46.4337 91.2274C45.1489 91.7912 43.764 92.0918 42.3611 92.1114C40.9581 92.1309 39.5654 91.8691 38.2653 91.3414C36.9652 90.8136 35.7841 90.0307 34.7917 89.0388L3.29172 57.5388C1.437 55.5483 0.427274 52.9157 0.475269 50.1955C0.523264 47.4752 1.62523 44.8799 3.54901 42.9561C5.4728 41.0323 8.06819 39.9303 10.7884 39.8823C13.5086 39.8343 16.1413 40.8441 18.1317 42.6988L42.0017 66.5548L94.0817 11.4088C95.9942 9.38574 98.6319 8.20504 101.415 8.12628C104.198 8.04752 106.898 9.07715 108.922 10.9888Z" fill="#297373"/>
<path d="M42.7287 59.5466L94.8084 4.40093C96.5388 2.57056 98.9252 1.50231 101.443 1.43105C103.961 1.35979 106.404 2.29136 108.235 4.02093C110.065 5.75129 111.133 8.13762 111.205 10.6553C111.276 13.1731 110.344 15.6162 108.615 17.4473L109.342 18.1339L108.615 17.4473L49.1153 80.4467C48.2428 81.3688 47.1944 82.1068 46.0319 82.6169C44.8694 83.127 43.6165 83.3989 42.3471 83.4166C41.0777 83.4343 39.8177 83.1975 38.6414 82.72C37.4652 82.2425 36.3967 81.5342 35.4988 80.6368C35.4988 80.6368 35.4987 80.6367 35.4987 80.6367L4.01163 49.1497C2.34101 47.3503 1.43179 44.9737 1.47511 42.5183C1.51854 40.0571 2.51556 37.7089 4.25612 35.9684C5.99669 34.2278 8.34489 33.2308 10.806 33.1873C13.2615 33.144 15.6381 34.0533 17.4375 35.7239L41.2948 59.5673L42.0224 60.2944L42.7287 59.5466Z" stroke="black" stroke-width="2"/>
</svg>
