<svg width="164" height="146" viewBox="0 0 164 146" fill="none" xmlns="http://www.w3.org/2000/svg">
<path d="M32.0683 19.0096C30.3457 13.823 28.9062 11.1856 28.9062 11.1856L52.5034 2.35498C52.5034 2.35498 57.1638 28.8469 81.9998 28.8469C106.836 28.8469 111.496 2.35498 111.496 2.35498L135.093 11.1856C135.093 11.1856 126.244 27.3751 126.244 58.2824V143.645H37.7552V58.2824C37.7552 39.8617 34.6109 26.6628 32.0683 19.0096Z" stroke="#393836" stroke-width="2" stroke-linecap="round" stroke-linejoin="round"/>
<path d="M135.093 11.1855L161.64 40.621L143.942 67.113L126.244 58.2823" stroke="#393836" stroke-width="2" stroke-linecap="round" stroke-linejoin="round"/>
<path d="M28.9061 11.1855L2.35938 40.621L20.0572 67.113L37.7551 58.2823" stroke="#393836" stroke-width="2" stroke-linecap="round" stroke-linejoin="round"/>
<path d="M52.5039 2.35498C52.5039 2.35498 62.8276 11.1856 82.0003 11.1856C101.173 11.1856 111.497 2.35498 111.497 2.35498" stroke="#393836" stroke-width="2" stroke-linecap="round" stroke-linejoin="round"/>
<rect x="95" y="39" width="24" height="12" rx="6" fill="black"/>
</svg>
