<svg width="154" height="132" viewBox="0 0 154 132" fill="none" xmlns="http://www.w3.org/2000/svg">
<path d="M64 37C64 33.6863 66.6863 31 70 31H83C86.3137 31 89 33.6863 89 37V37C89 40.3137 86.3137 43 83 43H70C66.6863 43 64 40.3137 64 37V37Z" fill="black"/>
<path d="M118.842 6.88232L152.511 40.6638L135.676 68.8151L118.842 63.1848" stroke="#4C4C4E" stroke-width="2" stroke-linecap="round" stroke-linejoin="round"/>
<path d="M34.6691 6.88232L1 40.6638L17.8345 68.8151L34.6691 63.1848" stroke="#4C4C4E" stroke-width="2" stroke-linecap="round" stroke-linejoin="round"/>
<path d="M118.843 6.88221L102.008 1.25195C88.0354 16.2847 65.4771 16.2847 51.5045 1.25195L34.6699 6.88221V130.748H118.843V6.88221Z" stroke="#4C4C4E" stroke-width="2" stroke-linecap="round" stroke-linejoin="round"/>
</svg>
