<svg width="154" height="132" viewBox="0 0 154 132" fill="none" xmlns="http://www.w3.org/2000/svg">
<path d="M44 37C44 33.6863 46.6863 31 50 31H103C106.314 31 109 33.6863 109 37V37C109 40.3137 106.314 43 103 43H50C46.6863 43 44 40.3137 44 37V37Z" fill="black"/>
<path d="M118.842 6.63037L152.511 40.4119L135.676 68.5631L118.842 62.9329" stroke="#4C4C4E" stroke-width="2" stroke-linecap="round" stroke-linejoin="round"/>
<path d="M34.6691 6.63037L1 40.4119L17.8345 68.5631L34.6691 62.9329" stroke="#4C4C4E" stroke-width="2" stroke-linecap="round" stroke-linejoin="round"/>
<path d="M119.173 6.63025L102.338 1C88.3655 16.0328 65.8072 16.0328 51.8345 1L35 6.63025V130.496H119.173V6.63025Z" stroke="#4C4C4E" stroke-width="2" stroke-linecap="round" stroke-linejoin="round"/>
</svg>
